<svg width="512" height="512" viewBox="0 0 512 512" fill="none" xmlns="http://www.w3.org/2000/svg">
<rect width="512" height="512" fill="black"/>
<g filter="url(#filter0_b_101_2)">
<path d="M125.597 146.104C128.922 137.651 140.885 137.651 144.21 146.104L226.443 355.2C229.023 361.761 224.186 368.86 217.136 368.86H52.6706C45.6207 368.86 40.7842 361.761 43.3644 355.2L125.597 146.104Z" fill="#089C70"/>
</g>
<ellipse cx="135.979" cy="98.2207" rx="24.7479" ry="24.2207" fill="#089C70"/>
<path d="M344.212 370.6C327.145 370.6 311.679 367.4 297.812 361C284.159 354.6 272.319 345.96 262.292 335.08C252.479 323.987 244.905 311.613 239.572 297.96C234.239 284.093 231.572 269.8 231.572 255.08C231.572 239.933 234.345 225.533 239.892 211.88C245.652 198.013 253.545 185.747 263.572 175.08C273.812 164.413 285.865 155.987 299.732 149.8C313.599 143.4 328.745 140.2 345.172 140.2C362.025 140.2 377.279 143.507 390.932 150.12C404.799 156.733 416.639 165.587 426.452 176.68C436.479 187.773 444.159 200.253 449.492 214.12C454.825 227.773 457.492 241.747 457.492 256.04C457.492 271.187 454.719 285.587 449.172 299.24C443.625 312.893 435.732 325.16 425.492 336.04C415.252 346.707 403.199 355.133 389.332 361.32C375.679 367.507 360.639 370.6 344.212 370.6ZM344.532 323.88C354.559 323.88 363.305 321.96 370.772 318.12C378.239 314.067 384.425 308.84 389.332 302.44C394.239 295.827 397.865 288.467 400.212 280.36C402.772 272.04 404.052 263.613 404.052 255.08C404.052 246.333 402.772 237.907 400.212 229.8C397.652 221.48 393.812 214.12 388.692 207.72C383.572 201.32 377.279 196.307 369.812 192.68C362.345 188.84 353.919 186.92 344.532 186.92C334.505 186.92 325.759 188.947 318.292 193C311.039 196.84 304.852 202.067 299.732 208.68C294.825 215.08 291.092 222.44 288.532 230.76C286.185 238.867 285.012 247.187 285.012 255.72C285.012 264.467 286.292 272.893 288.852 281C291.412 289.107 295.145 296.467 300.052 303.08C305.172 309.48 311.465 314.6 318.932 318.44C326.399 322.067 334.932 323.88 344.532 323.88ZM330.452 279.4H379.732L460.692 369H411.412L330.452 279.4Z" fill="#08289C"/>
<defs>
<filter id="filter0_b_101_2" x="38.6609" y="135.764" width="192.485" height="237.096" filterUnits="userSpaceOnUse" color-interpolation-filters="sRGB">
<feFlood flood-opacity="0" result="BackgroundImageFix"/>
<feGaussianBlur in="BackgroundImage" stdDeviation="2"/>
<feComposite in2="SourceAlpha" operator="in" result="effect1_backgroundBlur_101_2"/>
<feBlend mode="normal" in="SourceGraphic" in2="effect1_backgroundBlur_101_2" result="shape"/>
</filter>
</defs>
</svg>
