<svg width="469" height="392" viewBox="0 0 469 392" fill="none" xmlns="http://www.w3.org/2000/svg">
<g filter="url(#filter0_b_5_120)">
<path d="M102.597 86.1043C105.922 77.6508 117.885 77.6508 121.21 86.1043L203.443 295.2C206.023 301.761 201.186 308.86 194.136 308.86H29.6706C22.6207 308.86 17.7842 301.761 20.3644 295.2L102.597 86.1043Z" fill="#089C70"/>
</g>
<ellipse cx="112.979" cy="38.2207" rx="24.7479" ry="24.2207" fill="#089C70"/>
<path d="M321.212 310.6C304.145 310.6 288.679 307.4 274.812 301C261.159 294.6 249.319 285.96 239.292 275.08C229.479 263.987 221.905 251.613 216.572 237.96C211.239 224.093 208.572 209.8 208.572 195.08C208.572 179.933 211.345 165.533 216.892 151.88C222.652 138.013 230.545 125.747 240.572 115.08C250.812 104.413 262.865 95.9867 276.732 89.8C290.599 83.4 305.745 80.2 322.172 80.2C339.025 80.2 354.279 83.5067 367.932 90.12C381.799 96.7333 393.639 105.587 403.452 116.68C413.479 127.773 421.159 140.253 426.492 154.12C431.825 167.773 434.492 181.747 434.492 196.04C434.492 211.187 431.719 225.587 426.172 239.24C420.625 252.893 412.732 265.16 402.492 276.04C392.252 286.707 380.199 295.133 366.332 301.32C352.679 307.507 337.639 310.6 321.212 310.6ZM321.532 263.88C331.559 263.88 340.305 261.96 347.772 258.12C355.239 254.067 361.425 248.84 366.332 242.44C371.239 235.827 374.865 228.467 377.212 220.36C379.772 212.04 381.052 203.613 381.052 195.08C381.052 186.333 379.772 177.907 377.212 169.8C374.652 161.48 370.812 154.12 365.692 147.72C360.572 141.32 354.279 136.307 346.812 132.68C339.345 128.84 330.919 126.92 321.532 126.92C311.505 126.92 302.759 128.947 295.292 133C288.039 136.84 281.852 142.067 276.732 148.68C271.825 155.08 268.092 162.44 265.532 170.76C263.185 178.867 262.012 187.187 262.012 195.72C262.012 204.467 263.292 212.893 265.852 221C268.412 229.107 272.145 236.467 277.052 243.08C282.172 249.48 288.465 254.6 295.932 258.44C303.399 262.067 311.932 263.88 321.532 263.88ZM307.452 219.4H356.732L437.692 309H388.412L307.452 219.4Z" fill="#08289C"/>
<defs>
<filter id="filter0_b_5_120" x="15.6609" y="75.7642" width="192.485" height="237.096" filterUnits="userSpaceOnUse" color-interpolation-filters="sRGB">
<feFlood flood-opacity="0" result="BackgroundImageFix"/>
<feGaussianBlur in="BackgroundImage" stdDeviation="2"/>
<feComposite in2="SourceAlpha" operator="in" result="effect1_backgroundBlur_5_120"/>
<feBlend mode="normal" in="SourceGraphic" in2="effect1_backgroundBlur_5_120" result="shape"/>
</filter>
</defs>
</svg>
