<svg xmlns="http://www.w3.org/2000/svg" width="512" height="109.749" viewBox="0 0 512 109.749"><g transform="translate(-15.714 -20.896)"><g transform="translate(15.714 32.579)"><path d="M15.714,132.529V63.036h19.5v69.494Zm0-77.436V35.9h19.5V55.093ZM49.775,97.716a43.823,43.823,0,0,1,3.656-18.267,32.232,32.232,0,0,1,9.992-12.972,23.669,23.669,0,0,1,14.622-4.765A21.843,21.843,0,0,1,90.23,65.286a22.179,22.179,0,0,1,8.286,9.133V35.9h19.5v73.068a7.819,7.819,0,0,0,.975,4.5,4.624,4.624,0,0,0,3.168,1.456v17.605a42.857,42.857,0,0,1-8.286,1.059,13.217,13.217,0,0,1-8.164-2.383,10.267,10.267,0,0,1-3.777-6.618l-.366-3.574a22.615,22.615,0,0,1-9.261,9.663,25.425,25.425,0,0,1-12.307,3.177,28.164,28.164,0,0,1-12.185-2.647,30.737,30.737,0,0,1-9.626-7.677,35.574,35.574,0,0,1-6.214-11.516A45.183,45.183,0,0,1,49.775,97.716Zm48.862,8.6V91.76A18.322,18.322,0,0,0,95.1,85.538,17.372,17.372,0,0,0,89.986,81.3a11.487,11.487,0,0,0-5.727-1.588A12.055,12.055,0,0,0,78.41,81.17a14.543,14.543,0,0,0-4.509,4.1A19.351,19.351,0,0,0,70.855,91.1a24.708,24.708,0,0,0-.975,7.016,22.589,22.589,0,0,0,1.1,7.148,20.333,20.333,0,0,0,3.29,5.692,14.739,14.739,0,0,0,4.874,3.706,14.086,14.086,0,0,0,6.093,1.324,12.423,12.423,0,0,0,4.021-.662,18.672,18.672,0,0,0,3.656-1.986,13.769,13.769,0,0,0,3.29-3.045A19.691,19.691,0,0,0,98.638,106.32Zm69.978,27.533a35.774,35.774,0,0,1-14.5-2.78,33.66,33.66,0,0,1-10.845-7.81,34.272,34.272,0,0,1-6.7-11.251,39.867,39.867,0,0,1-2.315-13.5,40.957,40.957,0,0,1,4.021-18.267,33.5,33.5,0,0,1,11.819-13.369q7.677-5.162,18.521-5.162t18.4,5.03a32.823,32.823,0,0,1,11.7,13.237,38.939,38.939,0,0,1,4.021,17.605,28.353,28.353,0,0,1-.244,3.706q-.121,1.72-.244,3.044H154.968a17.354,17.354,0,0,0,2.315,7.81,14.411,14.411,0,0,0,5.24,4.9,14.756,14.756,0,0,0,6.7,1.588,15.669,15.669,0,0,0,8.164-2.25,11.784,11.784,0,0,0,5.361-6.089l16.572,5.03a30.084,30.084,0,0,1-6.945,9.663A32.447,32.447,0,0,1,181.9,131.47,35.547,35.547,0,0,1,168.616,133.853Zm-14.135-42.49h27.782a19.255,19.255,0,0,0-2.315-7.545,13.289,13.289,0,0,0-11.576-6.883A12.912,12.912,0,0,0,156.8,83.818,19.255,19.255,0,0,0,154.481,91.363Zm57.942,20.385A20.8,20.8,0,0,1,215.957,99.7a23.679,23.679,0,0,1,9.748-8.074,32,32,0,0,1,14.257-3.045,37.215,37.215,0,0,1,7.677.794,25.874,25.874,0,0,1,6.58,1.986V88.318q0-5.692-3.168-8.736t-9.626-3.044a25.966,25.966,0,0,0-10.114,1.986,54.643,54.643,0,0,0-9.87,5.692l-5.849-13.5a49.418,49.418,0,0,1,13.16-6.751,47.145,47.145,0,0,1,14.622-2.25q14.378,0,22.3,7.545,8.042,7.413,8.042,21.576v18.135a8.727,8.727,0,0,0,.853,4.5,4.769,4.769,0,0,0,3.29,1.456v17.605q-2.437.529-4.63.794a29.189,29.189,0,0,1-3.656.265q-5.483,0-8.408-2.383a10.641,10.641,0,0,1-3.534-6.486l-.366-3.045a29.706,29.706,0,0,1-10.235,9.133,26.3,26.3,0,0,1-12.307,3.044,22.749,22.749,0,0,1-11.454-2.912,21.6,21.6,0,0,1-7.92-7.942A21.972,21.972,0,0,1,212.423,111.747Zm38.748,2.647a10.94,10.94,0,0,0,2.193-2.647,5.522,5.522,0,0,0,.853-2.78v-6.221a24.06,24.06,0,0,0-5.483-1.588,24.892,24.892,0,0,0-5.483-.662,14.42,14.42,0,0,0-8.9,2.647,7.879,7.879,0,0,0-3.534,6.751,8.186,8.186,0,0,0,1.219,4.368,9.127,9.127,0,0,0,3.29,3.177,10.559,10.559,0,0,0,5.118,1.191,16.478,16.478,0,0,0,10.723-4.236Zm66.035,19.458a45.292,45.292,0,0,1-15.962-2.912,34.223,34.223,0,0,1-13.16-8.6l6.7-13.369a51.655,51.655,0,0,0,11.332,7.016,26.9,26.9,0,0,0,10.479,2.383,10.859,10.859,0,0,0,5.849-1.324,4.523,4.523,0,0,0,2.071-4.1,3.817,3.817,0,0,0-1.219-3.045,10.534,10.534,0,0,0-3.777-2.118q-2.437-.926-6.092-1.986a105.043,105.043,0,0,1-12.185-5.162,19.3,19.3,0,0,1-7.311-6.089,17.038,17.038,0,0,1-2.437-9.531,22.816,22.816,0,0,1,3.168-12.178,21.938,21.938,0,0,1,9.261-8.207,32.229,32.229,0,0,1,14.257-2.912,37.3,37.3,0,0,1,12.794,2.25A32.845,32.845,0,0,1,342.8,71.507L335.24,84.744a50.473,50.473,0,0,0-9.748-5.957,20.726,20.726,0,0,0-8.286-1.853,12.7,12.7,0,0,0-3.777.529,5.776,5.776,0,0,0-2.8,1.853,5.664,5.664,0,0,0,0,6.354,9.385,9.385,0,0,0,3.29,2.118q2.315.794,5.727,1.986a90.032,90.032,0,0,1,13.16,5.162,18.873,18.873,0,0,1,7.8,6.354q2.68,3.706,2.681,9.928,0,10.59-7.067,16.678Q329.27,133.853,317.207,133.853Z" transform="translate(-15.714 -35.9)" fill="#08289c"/></g><g transform="translate(378.527 51.996)"><path d="M545.035,65.746a6.972,6.972,0,0,1,13.32,0L580.98,127.54c1.872,5.112-1.595,10.664-6.659,10.664H529.068c-5.065,0-8.532-5.552-6.66-10.664Z" transform="translate(-521.893 -60.837)" fill="#089c70"/></g><ellipse cx="8.476" cy="8.91" rx="8.476" ry="8.91" transform="translate(400.221 20.896)" fill="#089c70"/><path d="M651.2,134.751a38.862,38.862,0,0,1-17.668-3.971,43.4,43.4,0,0,1-13.525-10.722,51.972,51.972,0,0,1-8.651-15.355,52.758,52.758,0,0,1-3.046-17.737A50.143,50.143,0,0,1,620.5,53.873a43.545,43.545,0,0,1,13.769-10.457,38.056,38.056,0,0,1,17.3-3.971,36.842,36.842,0,0,1,17.425,4.1A42.434,42.434,0,0,1,682.52,54.535a50.226,50.226,0,0,1,8.773,15.487,51.435,51.435,0,0,1-.122,35.21,49.573,49.573,0,0,1-9.017,15.222,43.558,43.558,0,0,1-13.77,10.457A38.365,38.365,0,0,1,651.2,134.751Zm.122-19.326a20.158,20.158,0,0,0,9.992-2.383,22.576,22.576,0,0,0,7.067-6.486,29.551,29.551,0,0,0,4.143-9.133,38.2,38.2,0,0,0,1.462-10.457,37.274,37.274,0,0,0-1.462-10.457,28.214,28.214,0,0,0-4.387-9.133,21.025,21.025,0,0,0-7.189-6.221,20.874,20.874,0,0,0-19.618.132,22.247,22.247,0,0,0-7.067,6.486A29.752,29.752,0,0,0,630,76.905a39.911,39.911,0,0,0-1.34,10.325,37.274,37.274,0,0,0,1.462,10.457,31.817,31.817,0,0,0,4.265,9.133,22.411,22.411,0,0,0,7.189,6.354A20.567,20.567,0,0,0,651.326,115.425Zm-5.361-18.4H664.73l30.828,37.063H676.793Z" transform="translate(-167.843 -4.106)" fill="#08289c"/></g></svg>