<svg xmlns="http://www.w3.org/2000/svg" width="890.739" height="711.753" viewBox="0 0 890.739 711.753"><g transform="translate(0.006)"><path d="M500.061,535.285l0-1.522c2.97.009,5.985-.043,8.963-.154l.055,1.521C506.087,535.243,503.051,535.294,500.061,535.285Zm-9.019-.206c-2.986-.129-6.015-.321-9-.571l.122-1.517c2.969.249,5.979.44,8.945.568Zm27.049-.471-.114-1.518c2.965-.232,5.966-.529,8.919-.882l.175,1.512C524.1,534.076,521.077,534.374,518.091,534.608Zm-45.028-1.038c-2.977-.373-5.982-.812-8.931-1.3l.242-1.5c2.929.489,5.914.925,8.871,1.3Zm62.945-1.106-.234-1.5c2.931-.473,5.9-1.015,8.822-1.61l.293,1.492c-2.942.6-5.929,1.146-8.881,1.622ZM455.261,530.6c-2.938-.616-5.9-1.3-8.8-2.035l.36-1.478c2.882.73,5.822,1.41,8.74,2.022Zm98.439-1.74-.353-1.479c2.895-.716,5.81-1.5,8.665-2.333l.411,1.464c-2.875.837-5.81,1.628-8.723,2.348Zm-115.949-2.693c-2.878-.857-5.774-1.784-8.608-2.755l.477-1.443c2.815.965,5.692,1.886,8.55,2.737ZM571.044,523.8l-.469-1.445c2.823-.951,5.666-1.974,8.451-3.041l.526,1.424c-2.8,1.075-5.667,2.1-8.509,3.061Zm-150.416-3.509c-2.8-1.091-5.618-2.257-8.38-3.467l.59-1.4c2.743,1.2,5.544,2.36,8.324,3.443Zm167.28-2.953-.582-1.4c2.735-1.179,5.481-2.43,8.161-3.718l.638,1.377c-2.7,1.3-5.464,2.555-8.217,3.743Zm-183.893-4.323c-2.709-1.322-5.425-2.716-8.072-4.145l.7-1.344c2.629,1.419,5.326,2.8,8.018,4.117Zm200.175-3.5-.691-1.349c2.636-1.4,5.276-2.876,7.847-4.38l.744,1.319c-2.589,1.514-5.247,3-7.9,4.409ZM388.045,504.4c-2.6-1.542-5.193-3.154-7.713-4.793l.8-1.283c2.5,1.627,5.08,3.229,7.661,4.761Zm231.767-4.022-.8-1.289c2.509-1.608,5.026-3.294,7.48-5.01l.845,1.254c-2.47,1.729-5,3.426-7.53,5.045Zm-247-5.875c-2.465-1.747-4.923-3.566-7.307-5.406l.9-1.213c2.368,1.827,4.81,3.634,7.258,5.37Zm261.853-4.519-.895-1.219c2.374-1.807,4.752-3.694,7.067-5.608l.941,1.182c-2.33,1.926-4.723,3.826-7.113,5.645Zm-276.246-6.588c-2.313-1.939-4.619-3.952-6.855-5.984l.994-1.135c2.221,2.018,4.512,4.018,6.81,5.943Zm290.248-4.99-.987-1.142c2.232-2,4.455-4.078,6.606-6.169l1.031,1.1c-2.166,2.1-4.4,4.194-6.651,6.209Zm-303.715-7.25c-2.148-2.116-4.288-4.31-6.36-6.52l1.08-1.052c2.059,2.2,4.185,4.375,6.319,6.477Zm316.767-5.437-1.073-1.059c2.066-2.175,4.119-4.426,6.1-6.69l1.114,1.014c-2,2.278-4.065,4.544-6.144,6.734ZM332.5,457.861c-1.984-2.294-3.944-4.655-5.826-7.016l1.16-.959c1.869,2.345,3.816,4.69,5.787,6.968ZM673.744,452l-1.154-.967c1.9-2.345,3.766-4.758,5.561-7.169l1.19.92c-1.807,2.428-3.691,4.856-5.6,7.217Zm-352.618-8.4c-1.792-2.442-3.56-4.952-5.254-7.463l1.231-.863c1.682,2.495,3.438,4.989,5.219,7.414Zm363.526-6.26-1.226-.869c1.7-2.495,3.38-5.053,4.979-7.6l1.259.819C688.055,432.256,686.368,434.831,684.652,437.342Zm-373.734-8.874c-1.592-2.577-3.156-5.223-4.647-7.865l1.3-.758c1.481,2.624,3.034,5.252,4.616,7.812Zm383.456-6.637-1.29-.767c1.5-2.628,2.972-5.318,4.364-7.992l1.32.713c-1.4,2.693-2.879,5.4-4.394,8.045Zm-392.434-9.276c-1.383-2.7-2.732-5.462-4.008-8.216l1.351-.65c1.268,2.736,2.608,5.481,3.981,8.161Zm400.9-6.992-1.347-.659c1.288-2.737,2.539-5.539,3.718-8.33l1.372.6C705.4,399.987,704.137,402.808,702.84,405.563ZM294.252,395.97c-1.168-2.807-2.292-5.671-3.342-8.512l1.4-.536c1.044,2.821,2.16,5.666,3.32,8.454ZM709.99,388.64l-1.4-.544c1.068-2.844,2.093-5.743,3.044-8.615l1.415.486c-.956,2.892-1.988,5.81-3.063,8.673ZM287.9,378.791c-.942-2.9-1.838-5.852-2.662-8.784l1.436-.419c.819,2.912,1.709,5.848,2.644,8.725ZM715.764,371.2l-1.434-.427c.834-2.9,1.621-5.867,2.342-8.814l1.449.368C717.4,365.29,716.6,368.275,715.764,371.2ZM282.929,361.119c-.708-2.966-1.366-5.985-1.955-8.974l1.465-.3c.585,2.969,1.238,5.969,1.941,8.915Zm437.195-7.76-1.464-.308c.6-2.963,1.15-5.984,1.634-8.978l1.474.247c-.487,3.015-1.04,6.055-1.644,9.039ZM279.377,343.1c-.469-3.006-.885-6.07-1.237-9.106l1.483-.178c.349,3.016.763,6.058,1.229,9.045Zm443.675-7.878-1.483-.186c.365-3.012.675-6.068.919-9.083l1.489.125c-.246,3.035-.557,6.111-.924,9.144ZM277.264,324.842c-.231-3.041-.405-6.129-.517-9.179l1.493-.057c.111,3.029.284,6.1.513,9.118Zm447.28-7.94-1.492-.065c.126-3.033.2-6.1.206-9.13v-.5l1.494,0v.5C724.742,310.757,724.672,313.849,724.544,316.9ZM278.082,306.477l-1.494,0v-.256c.01-2.969.076-5.976.2-8.933l1.492.064c-.12,2.938-.186,5.925-.2,8.878Zm445.008-8.4c-.114-3.023-.289-6.09-.523-9.117l1.49-.119c.235,3.047.411,6.135.526,9.178Zm-444.26-9.843-1.489-.124c.245-3.047.553-6.124.916-9.145l1.483.185C279.38,282.148,279.074,285.206,278.831,288.232Zm442.857-8.361c-.351-3-.767-6.046-1.239-9.043l1.476-.241c.474,3.018.894,6.081,1.246,9.1Zm-440.681-9.763-1.474-.246c.483-3.012,1.033-6.054,1.635-9.041l1.463.306c-.6,2.967-1.144,5.988-1.624,8.981Zm437.846-8.267c-.59-2.976-1.246-5.975-1.951-8.912l1.451-.362c.71,2.957,1.37,5.976,1.964,8.973Zm-434.243-9.62-1.45-.366c.72-2.96,1.51-5.947,2.348-8.878l1.434.426C286.109,246.315,285.325,249.281,284.61,252.221ZM714.6,244.1c-.822-2.91-1.714-5.845-2.653-8.722l1.418-.48c.945,2.9,1.844,5.851,2.671,8.781ZM289.623,234.69l-1.416-.485c.955-2.9,1.982-5.814,3.055-8.677l1.4.543c-1.065,2.844-2.086,5.743-3.034,8.62Zm419.323-7.913c-1.052-2.835-2.172-5.678-3.329-8.451l1.375-.6c1.165,2.792,2.293,5.654,3.352,8.508Zm-412.913-9.189-1.373-.6c1.183-2.808,2.439-5.631,3.734-8.39l1.348.656c-1.285,2.74-2.533,5.544-3.709,8.334Zm405.921-7.573c-1.27-2.733-2.612-5.477-3.989-8.156l1.323-.707c1.387,2.7,2.739,5.46,4.017,8.211Zm-398.175-8.934-1.321-.711c1.4-2.7,2.877-5.408,4.385-8.051l1.292.765C306.635,195.709,305.169,198.4,303.778,201.081Zm389.874-7.21c-1.485-2.625-3.041-5.252-4.624-7.807l1.263-.813c1.594,2.573,3.16,5.217,4.656,7.86Zm-380.85-8.6-1.26-.818c1.611-2.576,3.295-5.154,5.005-7.661l1.226.869C316.074,180.156,314.4,182.716,312.8,185.275Zm371.3-6.826c-1.686-2.494-3.445-4.986-5.227-7.408l1.195-.913c1.794,2.438,3.564,4.947,5.262,7.458Zm-361.057-8.182-1.191-.918c1.808-2.436,3.689-4.866,5.589-7.223l1.155.966c-1.889,2.342-3.757,4.756-5.553,7.176Zm350.315-6.416c-1.877-2.349-3.827-4.691-5.795-6.961l1.119-1.008c1.982,2.286,3.944,4.644,5.834,7.008Zm-338.932-7.7-1.115-1.012c1.991-2.277,4.055-4.545,6.137-6.742l1.075,1.057c-2.068,2.182-4.119,4.435-6.1,6.7ZM661.5,150.168c-2.06-2.192-4.188-4.369-6.326-6.47l1.037-1.1c2.152,2.115,4.294,4.306,6.367,6.513Zm-314.623-7.156-1.032-1.1c2.162-2.106,4.4-4.2,6.644-6.217l.988,1.141c-2.231,2.006-4.452,4.084-6.6,6.176Zm301.722-5.522c-2.226-2.018-4.519-4.016-6.816-5.936l.948-1.177c2.312,1.933,4.621,3.944,6.861,5.976Zm-288.286-6.555-.943-1.18c2.324-1.927,4.715-3.828,7.107-5.653l.9,1.218c-2.377,1.812-4.752,3.7-7.06,5.615ZM634.733,125.9c-2.377-1.83-4.822-3.635-7.263-5.362l.852-1.25c2.458,1.74,4.919,3.556,7.313,5.4ZM374.641,120l-.847-1.254c2.468-1.731,5-3.43,7.525-5.053l.8,1.288C379.608,116.589,377.093,118.277,374.641,120ZM620,115.476c-2.514-1.629-5.093-3.228-7.667-4.752l.751-1.316c2.59,1.534,5.187,3.143,7.718,4.784Zm-230.216-5.2-.745-1.319c2.588-1.518,5.244-3,7.894-4.418l.693,1.348c-2.633,1.4-5.272,2.881-7.842,4.389Zm214.7-3.981c-2.634-1.417-5.333-2.8-8.022-4.108l.643-1.374c2.708,1.317,5.426,2.709,8.076,4.136ZM405.63,101.822l-.639-1.376c2.7-1.3,5.461-2.562,8.213-3.752l.583,1.4c-2.733,1.182-5.479,2.436-8.158,3.727Zm182.646-3.414c-2.742-1.2-5.543-2.352-8.328-3.434l.533-1.422c2.8,1.089,5.624,2.252,8.383,3.457Zm-166.192-3.7-.528-1.424c2.8-1.077,5.66-2.11,8.5-3.071l.47,1.445C427.706,92.611,424.864,93.637,422.084,94.706Zm149.4-2.82c-2.82-.963-5.7-1.881-8.553-2.727l.418-1.461c2.875.852,5.771,1.775,8.61,2.745Zm-132.394-2.93-.412-1.463c2.876-.842,5.81-1.636,8.721-2.359l.354,1.479C444.864,87.331,441.95,88.12,439.094,88.956Zm115.185-2.167c-2.882-.726-5.823-1.4-8.742-2.012l.3-1.491c2.938.613,5.9,1.294,8.8,2.025ZM456.5,84.63l-.3-1.492c2.931-.6,5.918-1.15,8.879-1.632l.236,1.5C462.381,83.488,459.414,84.033,456.5,84.63Zm80.219-1.5c-2.936-.487-5.922-.92-8.873-1.286l.181-1.511c2.971.369,5.977.8,8.932,1.295ZM474.2,81.752l-.176-1.512c2.973-.359,5.994-.661,8.979-.9l.116,1.517c-2.965.236-5.966.536-8.918.892Zm44.734-.832c-2.961-.245-5.971-.433-8.946-.558l.062-1.521c2.995.126,6.024.315,9,.561Zm-26.867-.588-.056-1.521c2.987-.116,6.022-.172,9.021-.167l0,1.522c-2.978,0-5.993.051-8.962.166Z" transform="translate(-92.716 -28.706)" fill="#3f3d56"/><path d="M890.493,377.406,748.109,628.687l-47.068,83.065-8.968-5.274L602.518,653.8l-66.853-39.33L292.585,471.473,326.595,0Z" transform="translate(-56.017)" fill="#f1f1f1"/><path d="M258,540.421c7.155-29.786,30.331-53.8,59.745-60.777a80.094,80.094,0,0,1,47.039,3.081c15.31,5.885,28.443,16.351,40.664,27.192,23.608,20.942,46.475,42.742,74.993,56.716,25.473,12.482,54.156,17.783,81.854,10.34a84.61,84.61,0,0,0,34.1-17.9c10.114-8.921,17.23-20.6,21.951-33.267,9.9-26.548,9.7-55.588,17.254-82.755,3.893-14,10.073-27.227,19.943-37.9,9.758-10.548,22.177-18.277,35.35-23.582,31.239-12.58,65.05-11.56,98.049-11.116,31.187.42,63.147-.128,92.36-12.642,13.018-5.577,25.169-13.459,34.774-24.1C926.3,322.382,933.121,308.447,938,293.984c2.519-7.466,4.526-15.095,6.331-22.769.672-2.856-3.649-4.075-4.322-1.214-3.737,15.888-8.381,31.792-16.6,45.94A87.215,87.215,0,0,1,891.761,347.5c-27.524,16.112-60.016,18.562-91.067,18.491-33.324-.076-67.413-2.6-99.783,7.231-26.342,8-50.585,24.036-62.783,49.879-12.142,25.724-12.566,54.915-18.611,82.337-3,13.619-7.491,27.029-15.542,38.462a73.006,73.006,0,0,1-32.241,25.107c-27.2,11.106-57.536,7.848-83.941-3.931-29.6-13.206-53.313-35.207-77.276-56.688-11.543-10.348-23.684-20.423-37.694-27.11a83.683,83.683,0,0,0-73.091.1,86.4,86.4,0,0,0-46.058,57.827c-.686,2.854,3.635,4.072,4.322,1.214Z" transform="translate(-88.315 -62.128)" fill="#3f3d56"/><path d="M632.917,715.023H557.867a272.442,272.442,0,0,1,0-91.175h75.049A167.037,167.037,0,0,0,632.917,715.023Z" transform="translate(-145.832 -124.749)" fill="#ff6584"/><path d="M304.384,604.136h75.049a272.441,272.441,0,0,0,0-91.175H304.384A167.036,167.036,0,0,1,304.384,604.136Z" transform="translate(-98.037 -105.215)" fill="#089c70"/><path d="M323.458,557.875a17.67,17.67,0,0,1,15.548,1.191c3.943,2.245,7.521,4.987,12.1,5.7a18.4,18.4,0,0,0,10.982-1.71c4.372-2.178,7.07-6.37,10.813-9.377,2.1-1.687-.86-4.667-2.94-3-3.656,2.937-6.262,7.208-10.715,9.012-4.767,1.932-9.408.946-13.732-1.592-3.486-2.046-6.734-4.388-10.736-5.278a21.572,21.572,0,0,0-12.422.962c-2.486.942-1.41,5.038,1.105,4.085Z" transform="translate(-101.208 -111.774)" fill="#f2f2f2"/><path d="M323.458,582.73a17.67,17.67,0,0,1,15.548,1.191c3.943,2.245,7.521,4.987,12.1,5.7a18.4,18.4,0,0,0,10.982-1.71c4.372-2.178,7.07-6.37,10.813-9.377,2.1-1.687-.86-4.667-2.94-3-3.656,2.937-6.262,7.208-10.715,9.013-4.767,1.932-9.408.946-13.732-1.592-3.486-2.046-6.734-4.388-10.736-5.278a21.572,21.572,0,0,0-12.422.962c-2.486.942-1.41,5.038,1.105,4.085Z" transform="translate(-101.208 -116.152)" fill="#f2f2f2"/><path d="M614.417,654.725a17.67,17.67,0,0,0-15.548,1.191c-3.943,2.245-7.521,4.987-12.1,5.7a18.394,18.394,0,0,1-10.982-1.71c-4.372-2.178-7.071-6.37-10.813-9.377-2.1-1.687.86-4.667,2.94-3,3.656,2.937,6.262,7.208,10.715,9.013,4.767,1.932,9.408.946,13.732-1.592,3.485-2.046,6.734-4.388,10.736-5.278a21.572,21.572,0,0,1,12.422.962c2.486.942,1.411,5.038-1.105,4.085Z" transform="translate(-147.791 -128.835)" fill="#f2f2f2"/><path d="M614.417,678.724a17.67,17.67,0,0,0-15.548,1.191c-3.943,2.245-7.521,4.987-12.1,5.7a18.394,18.394,0,0,1-10.982-1.71c-4.372-2.178-7.071-6.37-10.813-9.377-2.1-1.687.86-4.667,2.94-3,3.656,2.937,6.262,7.208,10.715,9.012,4.767,1.932,9.408.946,13.732-1.592,3.485-2.046,6.734-4.388,10.736-5.278a21.572,21.572,0,0,1,12.422.962c2.486.942,1.411,5.038-1.105,4.085Z" transform="translate(-147.791 -133.062)" fill="#f2f2f2"/><path d="M614.417,702.722a17.67,17.67,0,0,0-15.548,1.191c-3.943,2.245-7.521,4.987-12.1,5.7a18.4,18.4,0,0,1-10.982-1.71c-4.372-2.178-7.071-6.37-10.813-9.377-2.1-1.687.86-4.667,2.94-3,3.656,2.937,6.262,7.208,10.715,9.012,4.767,1.932,9.408.946,13.732-1.592,3.485-2.046,6.734-4.388,10.736-5.278a21.571,21.571,0,0,1,12.422.962c2.486.942,1.411,5.038-1.105,4.085Z" transform="translate(-147.791 -137.29)" fill="#f2f2f2"/><path d="M779.966,219.813c-16.062-27.653-47.839-28.941-47.839-28.941s-30.965-4.035-50.828,38.081c-18.514,39.255-44.067,77.156-4.114,86.346l7.217-22.887L688.871,317a153.427,153.427,0,0,0,17.094.3c42.786-1.408,83.534.412,82.222-15.232C786.444,281.271,795.42,246.421,779.966,219.813Z" transform="translate(-165.361 -48.458)" fill="#2f2e41"/><path d="M656.812,544.754l-54.168,38.328s-31.6,33.729-9.028,33.729,31.6-29.13,31.6-29.13l69.214-30.662Z" transform="translate(-151.856 -110.816)" fill="#ffb8b8"/><path d="M692.325,363.312s-47.4,149.479-32.35,157.145,48.149,12.265,48.149,12.265Z" transform="translate(-165.552 -78.853)" fill="#d0cde1"/><path d="M692.325,363.312s-47.4,149.479-32.35,157.145,48.149,12.265,48.149,12.265Z" transform="translate(-165.552 -78.853)" opacity="0.1"/><path d="M854.844,739.5l-47.068,83.066-8.967-5.275C781.671,750.306,761,670.467,761,670.467l-51.746,94.145L642.4,725.281c16-35.1,43.361-117.672,43.361-117.672l121.883-62.857s39.119,24.53,40.623,84.323,1.5,95.056,1.5,95.056S851.76,729.955,854.844,739.5Z" transform="translate(-162.752 -110.815)" fill="#2f2e41"/><ellipse cx="39.121" cy="39.861" rx="39.121" ry="39.861" transform="translate(517.746 166.408)" fill="#ffb8b8"/><path d="M736.748,304.152s9.028,29.129,0,39.861S786.4,328.682,786.4,328.682s-21.065-30.662-15.047-44.461Z" transform="translate(-180.635 -64.921)" fill="#ffb8b8"/><path d="M783.066,314.459a39.234,39.234,0,0,1-3.721,5.148c-1.5,1.533-10.533,3.066-12.037,6.132s-23.692,7.437-23.692,7.437l-7.906,3.295s-37.617,9.2-37.617,16.864S695.085,384,695.085,384s-12.037,13.8-4.514,47.527c2.9,13,6.939,38.207,4.673,64.927-3.615,42.627-14.267,88.625-3.169,91.451,18.056,4.6,69.214,6.133,85.766-16.864s18.056-42.927,36.112-44.461-3.009-64.391-3.009-64.391l22.57-150.246S795.815,298.579,783.066,314.459Z" transform="translate(-171.321 -68.878)" fill="#d0cde1"/><path d="M749.578,587.268h75.049a272.442,272.442,0,0,0,0-91.175H749.578a167.038,167.038,0,0,1,0,91.175Z" transform="translate(-183.272 -102.244)" fill="#089c70"/><path d="M768.286,532.162a17.669,17.669,0,0,1,15.548,1.191c3.943,2.245,7.521,4.987,12.1,5.7a18.394,18.394,0,0,0,10.982-1.71c4.372-2.178,7.07-6.37,10.813-9.377,2.1-1.687-.86-4.666-2.94-3-3.656,2.937-6.262,7.208-10.715,9.012-4.767,1.932-9.408.946-13.732-1.592-3.486-2.046-6.734-4.388-10.736-5.278a21.573,21.573,0,0,0-12.422.962c-2.486.942-1.41,5.038,1.105,4.085Z" transform="translate(-186.372 -107.244)" fill="#f2f2f2"/><path d="M768.286,556.161a17.669,17.669,0,0,1,15.548,1.191c3.943,2.245,7.521,4.987,12.1,5.7a18.4,18.4,0,0,0,10.982-1.71c4.372-2.178,7.07-6.37,10.813-9.377,2.1-1.687-.86-4.667-2.94-3-3.656,2.937-6.262,7.208-10.715,9.013-4.767,1.932-9.408.946-13.732-1.592-3.486-2.046-6.734-4.388-10.736-5.278a21.57,21.57,0,0,0-12.422.962c-2.486.942-1.41,5.038,1.105,4.085Z" transform="translate(-186.372 -111.472)" fill="#f2f2f2"/><path d="M885.708,429.375,831.54,467.7s-31.6,33.729-9.028,33.729,31.6-29.129,31.6-29.129l69.214-30.662Z" transform="translate(-195.679 -90.491)" fill="#ffb8b8"/><path d="M767.681,219.205,736.287,202.45l-19.7,3.114A35.49,35.49,0,0,0,687.646,233.1l-3.683,16.575,22.328-.875,6.238-14.83v14.585l10.3-.4,5.98-23.61,3.737,25.133,36.626-.762Z" transform="translate(-170.709 -50.516)" fill="#2f2e41"/><path d="M855.142,316.132l10.533-3.066S972.505,357.527,969.5,395.855s1.5,38.328-16.551,39.861-70.719-16.864-69.214-19.931,12.038-18.4,12.038-18.4l-40.626-32.2Z" transform="translate(-203.482 -70.002)" fill="#d0cde1"/><ellipse cx="6.019" cy="6.132" rx="6.019" ry="6.132" transform="translate(589.969 200.137)" fill="#ffb8b8"/><path d="M858.915,390.376c39.267-2.158,79.081,3.522,117.713-6.161,2.8-.7,1.614-5.106-1.191-4.4-38.212,9.577-77.676,3.862-116.522,6-2.869.158-2.887,4.725,0,4.566Z" transform="translate(-203.791 -81.746)" fill="#3f3d56"/><path d="M1061.976,448.147l62.278-42.671a267.813,267.813,0,0,0-49.933-75.659l-62.278,42.671a164.246,164.246,0,0,1,49.933,75.659Z" transform="translate(-233.522 -72.953)" fill="#089c70"/><path d="M1053.5,402a17.9,17.9,0,0,1,13.555-7.852c4.5-.379,8.972-.138,13.161-2.146a18.842,18.842,0,0,0,8.173-7.663c2.435-4.293,2.378-9.306,3.837-13.93.819-2.594-3.27-3.383-4.08-.814-1.425,4.516-1.249,9.542-3.956,13.571-2.9,4.314-7.289,6.134-12.267,6.486-4.013.284-7.991.187-11.8,1.724a22.026,22.026,0,0,0-9.781,7.861c-1.547,2.2,1.589,4.983,3.155,2.762Z" transform="translate(-240.775 -79.683)" fill="#f2f2f2"/><path d="M1067.374,422.63a17.9,17.9,0,0,1,13.555-7.852c4.5-.379,8.972-.138,13.161-2.146a18.84,18.84,0,0,0,8.176-7.663c2.435-4.293,2.378-9.306,3.838-13.93.819-2.594-3.27-3.383-4.08-.814-1.425,4.516-1.249,9.542-3.956,13.571-2.9,4.314-7.289,6.134-12.267,6.486-4.013.284-7.991.187-11.8,1.724a22.028,22.028,0,0,0-9.781,7.861c-1.547,2.2,1.589,4.983,3.155,2.762Z" transform="translate(-243.431 -83.317)" fill="#f2f2f2"/><rect width="314.767" height="82.592" transform="translate(0.264 41.657) rotate(0.187)" fill="#3f3d56"/><ellipse cx="22.051" cy="22.468" rx="22.051" ry="22.468" transform="translate(15.697 60.476)" fill="#089c70"/><rect width="91.229" height="6.614" transform="translate(84.071 64.154) rotate(0.187)" fill="#fff"/><rect width="201.05" height="6.621" transform="translate(84.02 80.014) rotate(0.187)" fill="#fff"/><rect width="201.05" height="6.621" transform="translate(83.969 95.872) rotate(0.187)" fill="#fff"/><rect width="314.767" height="82.592" transform="translate(0.264 261.621) rotate(0.187)" fill="#3f3d56"/><ellipse cx="22.051" cy="22.468" rx="22.051" ry="22.468" transform="translate(15.697 280.442)" fill="#089c70"/><rect width="91.229" height="6.614" transform="translate(84.071 284.119) rotate(0.187)" fill="#fff"/><rect width="201.05" height="6.621" transform="translate(84.02 299.978) rotate(0.187)" fill="#fff"/><rect width="201.05" height="6.621" transform="translate(83.969 315.837) rotate(0.187)" fill="#fff"/><rect width="314.757" height="82.553" transform="translate(390.767 234.295) rotate(179.813)" fill="#3f3d56"/><ellipse cx="22.051" cy="22.468" rx="22.051" ry="22.468" transform="translate(330.968 170.54)" fill="#089c70"/><rect width="91.229" height="6.603" transform="translate(306.717 180.828) rotate(179.813)" fill="#fff"/><rect width="201.049" height="6.596" transform="translate(306.767 196.688) rotate(179.813)" fill="#fff"/><rect width="201.049" height="6.596" transform="translate(306.818 212.547) rotate(179.813)" fill="#fff"/></g></svg>